<mxfile host="Electron" agent="Mozilla/5.0 (Windows NT 10.0; Win64; x64) AppleWebKit/537.36 (KHTML, like Gecko) draw.io/26.0.4 Chrome/128.0.6613.186 Electron/32.2.5 Safari/537.36" version="26.0.4">
  <diagram name="Page-1" id="zvSBfGEq7SDjV6DgKWPT">
    <mxGraphModel dx="1725" dy="518" grid="1" gridSize="10" guides="1" tooltips="1" connect="1" arrows="1" fold="1" page="1" pageScale="1" pageWidth="850" pageHeight="1100" math="0" shadow="0">
      <root>
        <mxCell id="0" />
        <mxCell id="1" parent="0" />
        <mxCell id="UKKsxVh5_taeKsnHQtfP-1" value="" style="shape=umlLifeline;perimeter=lifelinePerimeter;whiteSpace=wrap;html=1;container=1;dropTarget=0;collapsible=0;recursiveResize=0;outlineConnect=0;portConstraint=eastwest;newEdgeStyle={&quot;curved&quot;:0,&quot;rounded&quot;:0};participant=umlActor;" parent="1" vertex="1">
          <mxGeometry x="-20" y="40" width="20" height="600" as="geometry" />
        </mxCell>
        <mxCell id="tBuK5VPHlBeZ_6ctuIkB-10" value="" style="html=1;points=[[0,0,0,0,5],[0,1,0,0,-5],[1,0,0,0,5],[1,1,0,0,-5]];perimeter=orthogonalPerimeter;outlineConnect=0;targetShapes=umlLifeline;portConstraint=eastwest;newEdgeStyle={&quot;curved&quot;:0,&quot;rounded&quot;:0};" vertex="1" parent="UKKsxVh5_taeKsnHQtfP-1">
          <mxGeometry x="5" y="60" width="10" height="210" as="geometry" />
        </mxCell>
        <mxCell id="UKKsxVh5_taeKsnHQtfP-3" value="Controller" style="shape=umlLifeline;perimeter=lifelinePerimeter;whiteSpace=wrap;html=1;container=1;dropTarget=0;collapsible=0;recursiveResize=0;outlineConnect=0;portConstraint=eastwest;newEdgeStyle={&quot;curved&quot;:0,&quot;rounded&quot;:0};" parent="1" vertex="1">
          <mxGeometry x="349" y="40" width="100" height="500" as="geometry" />
        </mxCell>
        <mxCell id="tBuK5VPHlBeZ_6ctuIkB-11" value="" style="html=1;points=[[0,0,0,0,5],[0,1,0,0,-5],[1,0,0,0,5],[1,1,0,0,-5]];perimeter=orthogonalPerimeter;outlineConnect=0;targetShapes=umlLifeline;portConstraint=eastwest;newEdgeStyle={&quot;curved&quot;:0,&quot;rounded&quot;:0};" vertex="1" parent="UKKsxVh5_taeKsnHQtfP-3">
          <mxGeometry x="45" y="240" width="10" height="140" as="geometry" />
        </mxCell>
        <mxCell id="UKKsxVh5_taeKsnHQtfP-5" value="Giao diện" style="shape=umlLifeline;perimeter=lifelinePerimeter;whiteSpace=wrap;html=1;container=1;dropTarget=0;collapsible=0;recursiveResize=0;outlineConnect=0;portConstraint=eastwest;newEdgeStyle={&quot;curved&quot;:0,&quot;rounded&quot;:0};" parent="1" vertex="1">
          <mxGeometry x="120" y="40" width="100" height="600" as="geometry" />
        </mxCell>
        <mxCell id="tBuK5VPHlBeZ_6ctuIkB-9" value="" style="html=1;points=[[0,0,0,0,5],[0,1,0,0,-5],[1,0,0,0,5],[1,1,0,0,-5]];perimeter=orthogonalPerimeter;outlineConnect=0;targetShapes=umlLifeline;portConstraint=eastwest;newEdgeStyle={&quot;curved&quot;:0,&quot;rounded&quot;:0};" vertex="1" parent="UKKsxVh5_taeKsnHQtfP-5">
          <mxGeometry x="45" y="60" width="10" height="530" as="geometry" />
        </mxCell>
        <mxCell id="UKKsxVh5_taeKsnHQtfP-9" value="Database" style="shape=umlLifeline;perimeter=lifelinePerimeter;whiteSpace=wrap;html=1;container=1;dropTarget=0;collapsible=0;recursiveResize=0;outlineConnect=0;portConstraint=eastwest;newEdgeStyle={&quot;curved&quot;:0,&quot;rounded&quot;:0};" parent="1" vertex="1">
          <mxGeometry x="661" y="40" width="100" height="500" as="geometry" />
        </mxCell>
        <mxCell id="tBuK5VPHlBeZ_6ctuIkB-13" value="" style="html=1;points=[[0,0,0,0,5],[0,1,0,0,-5],[1,0,0,0,5],[1,1,0,0,-5]];perimeter=orthogonalPerimeter;outlineConnect=0;targetShapes=umlLifeline;portConstraint=eastwest;newEdgeStyle={&quot;curved&quot;:0,&quot;rounded&quot;:0};" vertex="1" parent="UKKsxVh5_taeKsnHQtfP-9">
          <mxGeometry x="45" y="275" width="10" height="80" as="geometry" />
        </mxCell>
        <mxCell id="UKKsxVh5_taeKsnHQtfP-11" value="khách hàng" style="text;html=1;align=center;verticalAlign=middle;resizable=0;points=[];autosize=1;strokeColor=none;fillColor=none;" parent="1" vertex="1">
          <mxGeometry x="-110" y="60" width="90" height="30" as="geometry" />
        </mxCell>
        <mxCell id="UKKsxVh5_taeKsnHQtfP-24" value="Chọn sản phẩm&lt;div&gt;và chọn mục đánh giá&lt;/div&gt;" style="html=1;verticalAlign=bottom;endArrow=block;curved=0;rounded=0;" parent="1" edge="1" target="UKKsxVh5_taeKsnHQtfP-5" source="UKKsxVh5_taeKsnHQtfP-1">
          <mxGeometry width="80" relative="1" as="geometry">
            <mxPoint x="-5" y="144" as="sourcePoint" />
            <mxPoint x="165" y="144" as="targetPoint" />
            <Array as="points">
              <mxPoint x="70" y="120" />
            </Array>
          </mxGeometry>
        </mxCell>
        <mxCell id="UKKsxVh5_taeKsnHQtfP-25" value="" style="html=1;verticalAlign=bottom;endArrow=block;curved=0;rounded=0;" parent="1" edge="1" target="tBuK5VPHlBeZ_6ctuIkB-1" source="UKKsxVh5_taeKsnHQtfP-5">
          <mxGeometry width="80" relative="1" as="geometry">
            <mxPoint x="170" y="154" as="sourcePoint" />
            <mxPoint x="240" y="140" as="targetPoint" />
            <Array as="points">
              <mxPoint x="200" y="150" />
            </Array>
          </mxGeometry>
        </mxCell>
        <mxCell id="rBJr6NsejrP9J6ZGsKP--5" value="" style="html=1;points=[[0,0,0,0,5],[0,1,0,0,-5],[1,0,0,0,5],[1,1,0,0,-5]];perimeter=orthogonalPerimeter;outlineConnect=0;targetShapes=umlLifeline;portConstraint=eastwest;newEdgeStyle={&quot;curved&quot;:0,&quot;rounded&quot;:0};" parent="1" vertex="1">
          <mxGeometry x="170" y="226" width="10" height="40" as="geometry" />
        </mxCell>
        <mxCell id="rBJr6NsejrP9J6ZGsKP--6" value="hiển thị&amp;nbsp;&lt;div&gt;khung đánh giá&lt;/div&gt;" style="html=1;align=left;spacingLeft=2;endArrow=block;rounded=0;edgeStyle=orthogonalEdgeStyle;curved=0;rounded=0;" parent="1" target="rBJr6NsejrP9J6ZGsKP--5" edge="1" source="UKKsxVh5_taeKsnHQtfP-5">
          <mxGeometry x="0.0118" relative="1" as="geometry">
            <mxPoint x="175" y="252" as="sourcePoint" />
            <Array as="points">
              <mxPoint x="230" y="200" />
              <mxPoint x="230" y="250" />
            </Array>
            <mxPoint as="offset" />
          </mxGeometry>
        </mxCell>
        <mxCell id="0_GMYEyTmsjrzybAVitv-1" value="Nhập đánh giá" style="endArrow=classic;html=1;rounded=0;" parent="1" edge="1" target="UKKsxVh5_taeKsnHQtfP-5" source="UKKsxVh5_taeKsnHQtfP-1">
          <mxGeometry width="50" height="50" relative="1" as="geometry">
            <mxPoint x="-5" y="328" as="sourcePoint" />
            <mxPoint x="165" y="328" as="targetPoint" />
            <Array as="points">
              <mxPoint x="80" y="280" />
            </Array>
          </mxGeometry>
        </mxCell>
        <mxCell id="0_GMYEyTmsjrzybAVitv-2" value="Gửi yêu cầu" style="html=1;verticalAlign=bottom;endArrow=block;curved=0;rounded=0;" parent="1" edge="1" target="UKKsxVh5_taeKsnHQtfP-3" source="UKKsxVh5_taeKsnHQtfP-5">
          <mxGeometry width="80" relative="1" as="geometry">
            <mxPoint x="170" y="340" as="sourcePoint" />
            <mxPoint x="330" y="340" as="targetPoint" />
            <Array as="points">
              <mxPoint x="220" y="300" />
              <mxPoint x="280" y="300" />
            </Array>
          </mxGeometry>
        </mxCell>
        <mxCell id="0_GMYEyTmsjrzybAVitv-3" value=":Sản Phẩm" style="shape=umlLifeline;perimeter=lifelinePerimeter;whiteSpace=wrap;html=1;container=1;dropTarget=0;collapsible=0;recursiveResize=0;outlineConnect=0;portConstraint=eastwest;newEdgeStyle={&quot;curved&quot;:0,&quot;rounded&quot;:0};" parent="1" vertex="1">
          <mxGeometry x="498" y="40" width="100" height="500" as="geometry" />
        </mxCell>
        <mxCell id="tBuK5VPHlBeZ_6ctuIkB-12" value="" style="html=1;points=[[0,0,0,0,5],[0,1,0,0,-5],[1,0,0,0,5],[1,1,0,0,-5]];perimeter=orthogonalPerimeter;outlineConnect=0;targetShapes=umlLifeline;portConstraint=eastwest;newEdgeStyle={&quot;curved&quot;:0,&quot;rounded&quot;:0};" vertex="1" parent="0_GMYEyTmsjrzybAVitv-3">
          <mxGeometry x="45" y="270" width="10" height="90" as="geometry" />
        </mxCell>
        <mxCell id="0_GMYEyTmsjrzybAVitv-5" value="Ghi nhận đánh giá" style="html=1;verticalAlign=bottom;endArrow=block;curved=0;rounded=0;" parent="1" edge="1" target="0_GMYEyTmsjrzybAVitv-3" source="UKKsxVh5_taeKsnHQtfP-3">
          <mxGeometry width="80" relative="1" as="geometry">
            <mxPoint x="335" y="349.86" as="sourcePoint" />
            <mxPoint x="617.5999999999999" y="349.86" as="targetPoint" />
            <Array as="points">
              <mxPoint x="470" y="320" />
            </Array>
          </mxGeometry>
        </mxCell>
        <mxCell id="0_GMYEyTmsjrzybAVitv-6" value="Thực hiện truy vấn" style="html=1;verticalAlign=bottom;endArrow=block;curved=0;rounded=0;" parent="1" edge="1" target="UKKsxVh5_taeKsnHQtfP-9" source="0_GMYEyTmsjrzybAVitv-3">
          <mxGeometry width="80" relative="1" as="geometry">
            <mxPoint x="625" y="360" as="sourcePoint" />
            <mxPoint x="769" y="360" as="targetPoint" />
            <Array as="points">
              <mxPoint x="640" y="340" />
            </Array>
          </mxGeometry>
        </mxCell>
        <mxCell id="0_GMYEyTmsjrzybAVitv-7" value="return" style="html=1;verticalAlign=bottom;endArrow=open;dashed=1;endSize=8;curved=0;rounded=0;" parent="1" edge="1" target="0_GMYEyTmsjrzybAVitv-3" source="UKKsxVh5_taeKsnHQtfP-9">
          <mxGeometry relative="1" as="geometry">
            <mxPoint x="710" y="390" as="sourcePoint" />
            <mxPoint x="626" y="388" as="targetPoint" />
            <Array as="points">
              <mxPoint x="630" y="370" />
            </Array>
          </mxGeometry>
        </mxCell>
        <mxCell id="0_GMYEyTmsjrzybAVitv-8" value="return" style="html=1;verticalAlign=bottom;endArrow=open;dashed=1;endSize=8;curved=0;rounded=0;" parent="1" edge="1" target="UKKsxVh5_taeKsnHQtfP-5" source="UKKsxVh5_taeKsnHQtfP-3">
          <mxGeometry relative="1" as="geometry">
            <mxPoint x="318.5" y="406" as="sourcePoint" />
            <mxPoint x="179" y="406" as="targetPoint" />
            <Array as="points">
              <mxPoint x="270" y="410" />
            </Array>
          </mxGeometry>
        </mxCell>
        <mxCell id="0_GMYEyTmsjrzybAVitv-9" value="return" style="html=1;verticalAlign=bottom;endArrow=open;dashed=1;endSize=8;curved=0;rounded=0;" parent="1" edge="1" target="UKKsxVh5_taeKsnHQtfP-3" source="0_GMYEyTmsjrzybAVitv-3">
          <mxGeometry relative="1" as="geometry">
            <mxPoint x="619.5" y="397" as="sourcePoint" />
            <mxPoint x="340" y="397" as="targetPoint" />
            <Array as="points">
              <mxPoint x="440" y="390" />
            </Array>
          </mxGeometry>
        </mxCell>
        <mxCell id="0_GMYEyTmsjrzybAVitv-10" value="" style="html=1;points=[[0,0,0,0,5],[0,1,0,0,-5],[1,0,0,0,5],[1,1,0,0,-5]];perimeter=orthogonalPerimeter;outlineConnect=0;targetShapes=umlLifeline;portConstraint=eastwest;newEdgeStyle={&quot;curved&quot;:0,&quot;rounded&quot;:0};" parent="1" vertex="1">
          <mxGeometry x="170" y="576" width="10" height="40" as="geometry" />
        </mxCell>
        <mxCell id="0_GMYEyTmsjrzybAVitv-11" value="Hiển thi đánh giá" style="html=1;align=left;spacingLeft=2;endArrow=block;rounded=0;edgeStyle=orthogonalEdgeStyle;curved=0;rounded=0;" parent="1" target="0_GMYEyTmsjrzybAVitv-10" edge="1" source="UKKsxVh5_taeKsnHQtfP-5">
          <mxGeometry relative="1" as="geometry">
            <mxPoint x="175" y="556" as="sourcePoint" />
            <Array as="points">
              <mxPoint x="230" y="560" />
              <mxPoint x="230" y="596" />
            </Array>
          </mxGeometry>
        </mxCell>
        <mxCell id="tBuK5VPHlBeZ_6ctuIkB-1" value="ref" style="shape=umlFrame;whiteSpace=wrap;html=1;pointerEvents=0;" vertex="1" parent="1">
          <mxGeometry x="240" y="110" width="140" height="75" as="geometry" />
        </mxCell>
        <mxCell id="tBuK5VPHlBeZ_6ctuIkB-2" value="Đăng nhập" style="text;html=1;align=center;verticalAlign=middle;resizable=0;points=[];autosize=1;strokeColor=none;fillColor=none;" vertex="1" parent="1">
          <mxGeometry x="269" y="140" width="80" height="30" as="geometry" />
        </mxCell>
        <mxCell id="tBuK5VPHlBeZ_6ctuIkB-3" value="Trạng thái đánh giá" style="shape=umlFrame;whiteSpace=wrap;html=1;pointerEvents=0;width=110;height=40;" vertex="1" parent="1">
          <mxGeometry x="30" y="430" width="700" height="210" as="geometry" />
        </mxCell>
        <mxCell id="tBuK5VPHlBeZ_6ctuIkB-4" value="" style="endArrow=none;dashed=1;html=1;rounded=0;exitX=0;exitY=0.534;exitDx=0;exitDy=0;exitPerimeter=0;" edge="1" parent="1">
          <mxGeometry width="50" height="50" relative="1" as="geometry">
            <mxPoint x="30" y="541.1399999999999" as="sourcePoint" />
            <mxPoint x="730" y="539" as="targetPoint" />
            <Array as="points">
              <mxPoint x="390" y="539" />
            </Array>
          </mxGeometry>
        </mxCell>
        <mxCell id="tBuK5VPHlBeZ_6ctuIkB-5" value="Đánh giá thất bại" style="text;html=1;align=center;verticalAlign=middle;resizable=0;points=[];autosize=1;strokeColor=none;fillColor=none;" vertex="1" parent="1">
          <mxGeometry x="30" y="480" width="110" height="30" as="geometry" />
        </mxCell>
        <mxCell id="tBuK5VPHlBeZ_6ctuIkB-6" value="" style="html=1;points=[[0,0,0,0,5],[0,1,0,0,-5],[1,0,0,0,5],[1,1,0,0,-5]];perimeter=orthogonalPerimeter;outlineConnect=0;targetShapes=umlLifeline;portConstraint=eastwest;newEdgeStyle={&quot;curved&quot;:0,&quot;rounded&quot;:0};" vertex="1" parent="1">
          <mxGeometry x="170" y="490" width="10" height="40" as="geometry" />
        </mxCell>
        <mxCell id="tBuK5VPHlBeZ_6ctuIkB-7" value="Thông báo đánh giá thất bại" style="html=1;align=left;spacingLeft=2;endArrow=block;rounded=0;edgeStyle=orthogonalEdgeStyle;curved=0;rounded=0;" edge="1" parent="1" target="tBuK5VPHlBeZ_6ctuIkB-6">
          <mxGeometry relative="1" as="geometry">
            <mxPoint x="170" y="474" as="sourcePoint" />
            <Array as="points">
              <mxPoint x="230" y="474" />
              <mxPoint x="230" y="510" />
            </Array>
            <mxPoint x="180" y="510" as="targetPoint" />
          </mxGeometry>
        </mxCell>
        <mxCell id="tBuK5VPHlBeZ_6ctuIkB-8" value="Đánh giá thành công" style="text;html=1;align=center;verticalAlign=middle;resizable=0;points=[];autosize=1;strokeColor=none;fillColor=none;" vertex="1" parent="1">
          <mxGeometry x="30" y="560" width="130" height="30" as="geometry" />
        </mxCell>
      </root>
    </mxGraphModel>
  </diagram>
</mxfile>
